<svg version="1.1" id="Шар_1" xmlns="http://www.w3.org/2000/svg" x="0" y="0" viewBox="0 0 95.65 31.14" style="enable-background:new 0 0 95.65 31.14" xml:space="preserve"><style>.st0{fill:#fff}</style><path class="st0" d="M22.26 12.71c1.66.11 7.82.08 17.97-4.64.1-.05.19.09.1.16-2.42 1.78-10.78 7.33-18.09 4.61-.07-.03-.05-.13.02-.13z"/><path class="st0" d="M56.24 6.24c.01-.02.03-.03.04-.05.63-.75.28-3.07.09-4.07a.597.597 0 0 0-.56-.49c-8.13-.38-12.7 5.91-15.24 8.61-2 2.13-9.52 3.86-12.83 4.53-.35.07-.34.58.01.64 6.49 1.08 11.87-.68 11.68-.15l-.26 2.76c-.03.35.25.64.6.63 8.38-.23 14.1-7.79 15.04-8.9.79-.93 9.07-3.48 12.05-4.38.23-.07.2-.41-.05-.44-7.26-.68-9.97.85-10.57 1.31zm-7.43 2.72c1.1-5.02 3.65-5.65 4.94-5.62.43.01.76.39.69.81-.59 3.93-3.72 5.05-5.1 5.35a.45.45 0 0 1-.53-.54z"/><path class="st0" d="M72.62 7.72c-1.66-.11-7.82-.08-17.97 4.64-.1.05-.19-.09-.1-.16 2.42-1.78 10.78-7.33 18.09-4.61.08.03.05.14-.02.13z"/><text transform="translate(-.385 29.526)" class="st0" style="font-size:12px;font-family:'TrebuchetMS-Bold'">karbivskyi roman</text></svg>