<?xml version="1.0" encoding="utf-8"?>
<!-- Generator: Adobe Illustrator 26.0.1, SVG Export Plug-In . SVG Version: 6.00 Build 0)  -->
<svg width="120px" height="59px" version="1.1" id="Шар_1" xmlns="http://www.w3.org/2000/svg" xmlns:xlink="http://www.w3.org/1999/xlink" x="0px" y="0px"
	 viewBox="0 0 120 41" style="enable-background:new 0 0 120 41;" xml:space="preserve">
<style type="text/css">
	.st0{fill:#AC6B34;}
	.st1{font-family:'TrebuchetMS-Bold';}
	.st2{font-size:15.0549px;}
</style>
<g>
	<g>
		<path class="st0" d="M27.9,16.9C30,17,37.7,17,50.5,11.1c0.1-0.1,0.2,0.1,0.1,0.2c-3,2.2-13.5,9.2-22.7,5.8
			C27.8,17,27.8,16.9,27.9,16.9z"/>
		<path class="st0" d="M70.6,8.8C70.6,8.8,70.6,8.8,70.6,8.8c0.8-1,0.4-3.9,0.2-5.2C70.7,3.3,70.4,3,70,3
			c-10.2-0.5-15.9,7.4-19.1,10.8c-2.5,2.7-11.9,4.8-16.1,5.7c-0.4,0.1-0.4,0.7,0,0.8c8.1,1.4,14.9-0.9,14.7-0.2l-0.3,3.5
			c0,0.4,0.3,0.8,0.8,0.8c10.5-0.3,17.7-9.8,18.9-11.2c1-1.2,11.4-4.4,15.1-5.5c0.3-0.1,0.3-0.5-0.1-0.6C74.7,6.3,71.3,8.2,70.6,8.8
			z M61.2,12.2c1.4-6.3,4.6-7.1,6.2-7.1c0.5,0,1,0.5,0.9,1c-0.7,4.9-4.7,6.3-6.4,6.7C61.5,13,61.1,12.6,61.2,12.2z"/>
		<path class="st0" d="M91.1,10.7c-2.1-0.1-9.8-0.1-22.5,5.8c-0.1,0.1-0.2-0.1-0.1-0.2c3-2.2,13.5-9.2,22.7-5.8
			C91.2,10.5,91.2,10.7,91.1,10.7z"/>
	</g>
	<text transform="matrix(1 0 0 1 -0.4819 38.0088)" class="st0 st1 st2">karbivskyi roman</text>
</g>
</svg>
